<svg width="200" height="45" viewBox="0 0 200 45" fill="none" xmlns="http://www.w3.org/2000/svg">
<path d="M106 26.5H0V41.5H106V26.5Z" fill="#2997EF"/>
<path d="M25.25 11.94C27.47 11.94 29.41 12.38 31.07 13.26C32.73 14.14 34.01 15.38 34.91 16.98C35.83 18.56 36.29 20.39 36.29 22.47C36.29 24.53 35.83 26.36 34.91 27.96C34.01 29.56 32.72 30.8 31.04 31.68C29.38 32.56 27.45 33 25.25 33H17.36V11.94H25.25ZM24.92 28.56C26.86 28.56 28.37 28.03 29.45 26.97C30.53 25.91 31.07 24.41 31.07 22.47C31.07 20.53 30.53 19.02 29.45 17.94C28.37 16.86 26.86 16.32 24.92 16.32H22.49V28.56H24.92ZM41.7369 14.52C40.8369 14.52 40.0969 14.26 39.5169 13.74C38.9569 13.2 38.6769 12.54 38.6769 11.76C38.6769 10.96 38.9569 10.3 39.5169 9.78003C40.0969 9.24003 40.8369 8.97003 41.7369 8.97003C42.6169 8.97003 43.3369 9.24003 43.8969 9.78003C44.4769 10.3 44.7669 10.96 44.7669 11.76C44.7669 12.54 44.4769 13.2 43.8969 13.74C43.3369 14.26 42.6169 14.52 41.7369 14.52ZM44.2869 16.26V33H39.1569V16.26H44.2869ZM54.3645 16.02C55.5445 16.02 56.5745 16.26 57.4545 16.74C58.3545 17.22 59.0445 17.85 59.5245 18.63V16.26H64.6545V32.97C64.6545 34.51 64.3445 35.9 63.7245 37.14C63.1245 38.4 62.1945 39.4 60.9345 40.14C59.6945 40.88 58.1445 41.25 56.2845 41.25C53.8045 41.25 51.7945 40.66 50.2545 39.48C48.7146 38.32 47.8346 36.74 47.6146 34.74H52.6845C52.8445 35.38 53.2245 35.88 53.8245 36.24C54.4245 36.62 55.1645 36.81 56.0445 36.81C57.1045 36.81 57.9445 36.5 58.5645 35.88C59.2045 35.28 59.5245 34.31 59.5245 32.97V30.6C59.0245 31.38 58.3345 32.02 57.4545 32.52C56.5745 33 55.5445 33.24 54.3645 33.24C52.9845 33.24 51.7345 32.89 50.6145 32.19C49.4946 31.47 48.6046 30.46 47.9446 29.16C47.3046 27.84 46.9846 26.32 46.9846 24.6C46.9846 22.88 47.3046 21.37 47.9446 20.07C48.6046 18.77 49.4946 17.77 50.6145 17.07C51.7345 16.37 52.9845 16.02 54.3645 16.02ZM59.5245 24.63C59.5245 23.35 59.1645 22.34 58.4445 21.6C57.7445 20.86 56.8845 20.49 55.8645 20.49C54.8445 20.49 53.9745 20.86 53.2545 21.6C52.5545 22.32 52.2045 23.32 52.2045 24.6C52.2045 25.88 52.5545 26.9 53.2545 27.66C53.9745 28.4 54.8445 28.77 55.8645 28.77C56.8845 28.77 57.7445 28.4 58.4445 27.66C59.1645 26.92 59.5245 25.91 59.5245 24.63ZM70.946 14.52C70.046 14.52 69.306 14.26 68.726 13.74C68.166 13.2 67.886 12.54 67.886 11.76C67.886 10.96 68.166 10.3 68.726 9.78003C69.306 9.24003 70.046 8.97003 70.946 8.97003C71.826 8.97003 72.546 9.24003 73.106 9.78003C73.686 10.3 73.976 10.96 73.976 11.76C73.976 12.54 73.686 13.2 73.106 13.74C72.546 14.26 71.826 14.52 70.946 14.52ZM73.496 16.26V33H68.366V16.26H73.496ZM86.5435 28.65V33H83.9335C82.0735 33 80.6235 32.55 79.5835 31.65C78.5435 30.73 78.0235 29.24 78.0235 27.18V20.52H75.9835V16.26H78.0235V12.18H83.1535V16.26H86.5135V20.52H83.1535V27.24C83.1535 27.74 83.2735 28.1 83.5135 28.32C83.7535 28.54 84.1535 28.65 84.7135 28.65H86.5435ZM88.381 24.6C88.381 22.88 88.701 21.37 89.341 20.07C90.001 18.77 90.891 17.77 92.011 17.07C93.131 16.37 94.381 16.02 95.761 16.02C96.941 16.02 97.971 16.26 98.851 16.74C99.751 17.22 100.441 17.85 100.921 18.63V16.26H106.051V33H100.921V30.63C100.421 31.41 99.721 32.04 98.821 32.52C97.941 33 96.911 33.24 95.731 33.24C94.371 33.24 93.131 32.89 92.011 32.19C90.891 31.47 90.001 30.46 89.341 29.16C88.701 27.84 88.381 26.32 88.381 24.6ZM100.921 24.63C100.921 23.35 100.561 22.34 99.841 21.6C99.141 20.86 98.281 20.49 97.261 20.49C96.241 20.49 95.371 20.86 94.651 21.6C93.951 22.32 93.601 23.32 93.601 24.6C93.601 25.88 93.951 26.9 94.651 27.66C95.371 28.4 96.241 28.77 97.261 28.77C98.281 28.77 99.141 28.4 99.841 27.66C100.561 26.92 100.921 25.91 100.921 24.63ZM114.893 10.8V33H109.763V10.8H114.893ZM138.948 18.6C138.568 17.9 138.018 17.37 137.298 17.01C136.598 16.63 135.768 16.44 134.808 16.44C133.148 16.44 131.818 16.99 130.818 18.09C129.818 19.17 129.318 20.62 129.318 22.44C129.318 24.38 129.838 25.9 130.878 27C131.938 28.08 133.388 28.62 135.228 28.62C136.488 28.62 137.548 28.3 138.408 27.66C139.288 27.02 139.928 26.1 140.328 24.9H133.818V21.12H144.978V25.89C144.598 27.17 143.948 28.36 143.028 29.46C142.128 30.56 140.978 31.45 139.578 32.13C138.178 32.81 136.598 33.15 134.838 33.15C132.758 33.15 130.898 32.7 129.258 31.8C127.638 30.88 126.368 29.61 125.448 27.99C124.548 26.37 124.098 24.52 124.098 22.44C124.098 20.36 124.548 18.51 125.448 16.89C126.368 15.25 127.638 13.98 129.258 13.08C130.878 12.16 132.728 11.7 134.808 11.7C137.328 11.7 139.448 12.31 141.168 13.53C142.908 14.75 144.058 16.44 144.618 18.6H138.948ZM152.949 19.05C153.549 18.13 154.299 17.41 155.199 16.89C156.099 16.35 157.099 16.08 158.199 16.08V21.51H156.789C155.509 21.51 154.549 21.79 153.909 22.35C153.269 22.89 152.949 23.85 152.949 25.23V33H147.819V16.26H152.949V19.05ZM163.231 14.52C162.331 14.52 161.591 14.26 161.011 13.74C160.451 13.2 160.171 12.54 160.171 11.76C160.171 10.96 160.451 10.3 161.011 9.78003C161.591 9.24003 162.331 8.97003 163.231 8.97003C164.111 8.97003 164.831 9.24003 165.391 9.78003C165.971 10.3 166.261 10.96 166.261 11.76C166.261 12.54 165.971 13.2 165.391 13.74C164.831 14.26 164.111 14.52 163.231 14.52ZM165.781 16.26V33H160.651V16.26H165.781ZM179.699 16.08C181.659 16.08 183.219 16.72 184.379 18C185.559 19.26 186.149 21 186.149 23.22V33H181.049V23.91C181.049 22.79 180.759 21.92 180.179 21.3C179.599 20.68 178.819 20.37 177.839 20.37C176.859 20.37 176.079 20.68 175.499 21.3C174.919 21.92 174.629 22.79 174.629 23.91V33H169.499V16.26H174.629V18.48C175.149 17.74 175.849 17.16 176.729 16.74C177.609 16.3 178.599 16.08 179.699 16.08Z" fill="#142A62"/>
<path d="M195.5 33C197.985 33 200 30.9853 200 28.5C200 26.0147 197.985 24 195.5 24C193.015 24 191 26.0147 191 28.5C191 30.9853 193.015 33 195.5 33Z" fill="#2997EF"/>
</svg>
